<svg width="100" height="76" viewBox="0 0 100 76" fill="none" xmlns="http://www.w3.org/2000/svg">
<path d="M91.2422 57.9844H90.8031V5.02969C90.8031 2.52969 88.7734 0.484375 86.2578 0.484375H13.7422C11.2266 0.484375 9.19688 2.52969 9.19688 5.02969V57.9844H8.75781C3.92344 57.9844 0 61.9234 0 66.7578C0 71.5922 3.92344 75.5156 8.75781 75.5156H91.2422C96.075 75.5156 100 71.5906 100 66.7578C100 61.925 96.075 57.9844 91.2422 57.9844ZM12.2266 5.02969C12.2266 4.19688 12.9078 3.51406 13.7422 3.51406H86.2578C87.0906 3.51406 87.7734 4.19531 87.7734 5.02969V57.9844H12.2266V5.02969ZM91.2422 72.4844H8.75781C5.60625 72.4844 3.03125 69.9078 3.03125 66.7563C3.03125 63.5891 5.60625 61.0141 8.75781 61.0141H91.2422C94.3938 61.0141 96.9688 63.5891 96.9688 66.7563C96.9703 69.9094 94.3938 72.4844 91.2422 72.4844Z" fill="black"/>
<path d="M24.0754 66.7578C24.0754 67.5906 23.3941 68.2734 22.5598 68.2734H15.1816C14.3332 68.2734 13.666 67.5921 13.666 66.7578C13.666 65.925 14.3332 65.2421 15.1816 65.2421H22.5598C23.3941 65.2421 24.0754 65.925 24.0754 66.7578ZM39.516 66.7578C39.516 67.5906 38.8348 68.2734 38.0004 68.2734H30.6066C29.7738 68.2734 29.091 67.5921 29.091 66.7578C29.091 65.925 29.7723 65.2421 30.6066 65.2421H38.0004C38.8332 65.2421 39.516 65.925 39.516 66.7578ZM54.9395 66.7578C54.9395 67.5906 54.2723 68.2734 53.4238 68.2734H46.0457C45.2129 68.2734 44.5301 67.5921 44.5301 66.7578C44.5301 65.925 45.2113 65.2421 46.0457 65.2421H53.4238C54.2723 65.2421 54.9395 65.925 54.9395 66.7578ZM38.7582 44.2265C38.7582 45.075 38.091 45.7421 37.2426 45.7421H21.591C20.7582 45.7421 20.0754 45.075 20.0754 44.2265C20.0754 43.3937 20.7566 42.7109 21.591 42.7109H37.2426C38.091 42.7125 38.7582 43.3937 38.7582 44.2265ZM79.9238 13.364C79.9238 14.1968 79.241 14.8796 78.4082 14.8796H21.591C20.7582 14.8796 20.0754 14.1984 20.0754 13.364C20.0754 12.5156 20.7566 11.8484 21.591 11.8484H78.4098C79.2426 11.8484 79.9238 12.5156 79.9238 13.364ZM79.9238 23.6515C79.9238 24.4843 79.241 25.1671 78.4082 25.1671H21.591C20.7582 25.1671 20.0754 24.4859 20.0754 23.6515C20.0754 22.8187 20.7566 22.1359 21.591 22.1359H78.4098C79.2426 22.1359 79.9238 22.8187 79.9238 23.6515ZM51.2879 33.939C51.2879 34.7718 50.6207 35.4546 49.7723 35.4546H21.591C20.7582 35.4546 20.0754 34.7734 20.0754 33.939C20.0754 33.1062 20.7566 32.4234 21.591 32.4234H49.7723C50.6223 32.4234 51.2879 33.1062 51.2879 33.939ZM72.091 49.2125C71.7879 49.5156 71.3941 49.6671 71.016 49.6671C70.6223 49.6671 70.2426 49.5156 69.941 49.2125L61.077 40.3484L62.3504 46.2734C62.5316 47.0921 62.002 47.8937 61.1832 48.0609C61.077 48.0906 60.9707 48.1062 60.8645 48.1062C60.1676 48.1062 59.5457 47.6218 59.3941 46.9093L57.0301 35.9703C57.0145 35.8796 57.0145 35.789 57.0145 35.7125C57.0145 35.6828 56.9988 35.6515 56.9988 35.6218C56.9988 35.4546 57.0441 35.289 57.1051 35.1375C57.1207 35.0921 57.1348 35.0609 57.1504 35.0312C57.2254 34.864 57.3176 34.7125 57.4379 34.5765C57.5738 34.4546 57.7254 34.364 57.8926 34.289C57.9223 34.2734 57.9535 34.2437 57.9988 34.2281C58.166 34.1828 58.3176 34.1375 58.4988 34.1375C58.5145 34.1375 58.5441 34.1531 58.5754 34.1531C58.652 34.1531 58.7426 34.1531 58.8332 34.1687L69.7723 36.5171C70.591 36.6984 71.1066 37.5015 70.9395 38.3203C70.7582 39.139 69.9395 39.6687 69.1363 39.4875L63.2129 38.2156L72.091 47.0796C72.6816 47.6671 72.6816 48.6218 72.091 49.2125Z" fill="black"/>
</svg>
