<svg width="80" height="80" viewBox="0 0 80 80" fill="none" xmlns="http://www.w3.org/2000/svg">
<g clip-path="url(#clip0_1_291)">
<path d="M1.66622 80.0082C1.39515 80.0095 1.12787 79.9444 0.887751 79.8186C0.647629 79.6929 0.441965 79.5102 0.288729 79.2866C0.135493 79.063 0.039348 78.8052 0.00869481 78.5359C-0.0219584 78.2666 0.013813 77.9938 0.112883 77.7415L6.32288 61.5915C2.18044 55.1562 -0.0153158 47.6615 -0.00044986 40.0082C-0.00044986 17.9515 17.9429 0.00817871 39.9996 0.00817871C62.0562 0.00817871 79.9995 17.9515 79.9995 40.0082C79.9995 62.0648 62.0562 80.0082 39.9996 80.0082C32.5196 80.0082 25.2362 77.9215 18.8896 73.9615L2.22622 79.9115C2.04669 79.9764 1.85712 80.0091 1.66622 80.0082ZM19.0996 70.4515C19.4196 70.4515 19.7362 70.5415 20.0096 70.7215C25.9509 74.6107 32.8984 76.6809 39.9996 76.6782C60.2162 76.6782 76.6662 60.2282 76.6662 40.0115C76.6662 19.7948 60.2162 3.34485 39.9996 3.34485C19.7829 3.34485 3.33288 19.7948 3.33288 40.0115C3.33288 47.3382 5.48622 54.4115 9.56622 60.4648C9.86955 60.9148 9.93288 61.4882 9.73955 61.9948L4.52622 75.5515L18.5396 70.5482C18.7194 70.4846 18.9088 70.4519 19.0996 70.4515Z" fill="black"/>
<path d="M50 60.0066C44.7633 60.0066 34.71 53.7433 30.4867 49.5199C26.2633 45.2933 20 35.2399 20 30.0066C20 24.6199 24.5833 20.0066 28.3333 20.0066H31.6667C31.9775 20.0069 32.2821 20.0942 32.546 20.2585C32.8099 20.4229 33.0226 20.6577 33.16 20.9366C33.1633 20.9399 35.17 25.0199 36.4833 27.5799C37.9633 30.4699 35.18 33.8699 33.5967 35.4733C34.1633 36.9266 35.4867 39.8066 37.8433 42.1633C40.2 44.5199 43.08 45.8466 44.5333 46.4099C46.1333 44.8233 49.5333 42.0366 52.4267 43.5233C54.9867 44.8399 59.0633 46.8433 59.0667 46.8433C59.64 47.1266 60 47.7066 60 48.3399V51.6733C60 55.4266 55.3833 60.0066 50 60.0066ZM28.3333 23.3399C26.45 23.3399 23.3333 26.4566 23.3333 30.0066C23.3333 33.8699 28.78 43.0933 32.8467 47.1599C37.29 51.6033 46.4267 56.6733 50 56.6733C53.55 56.6733 56.6667 53.5566 56.6667 51.6733V49.3766C54.7386 48.4283 52.8175 47.466 50.9033 46.4899C50.1233 46.0699 47.7533 47.7399 46.25 49.4433C46.0406 49.6795 45.7685 49.8516 45.4652 49.9395C45.162 50.0274 44.84 50.0276 44.5367 49.9399C44.3267 49.8799 39.39 48.4199 35.4867 44.5166C31.5833 40.6133 30.1267 35.6766 30.0633 35.4666C29.9757 35.1633 29.9758 34.8413 30.0637 34.5381C30.1516 34.2348 30.3237 33.9627 30.56 33.7533C32.26 32.2499 33.92 29.8899 33.5133 29.0966C32.5833 27.2866 31.3067 24.7066 30.6333 23.3399H28.3333Z" fill="black"/>
</g>
<defs>
<clipPath id="clip0_1_291">
<rect width="80" height="80" fill="white"/>
</clipPath>
</defs>
</svg>
