<svg width="80" height="80" viewBox="0 0 80 80" fill="none" xmlns="http://www.w3.org/2000/svg">
<path d="M57.6498 0H22.3498C20.9442 0 19.5961 0.558391 18.6021 1.55233C17.6082 2.54628 17.0498 3.89435 17.0498 5.3V74.7C17.0498 76.1056 17.6082 77.4537 18.6021 78.4477C19.5961 79.4416 20.9442 80 22.3498 80H57.6498C59.0555 80 60.4035 79.4416 61.3975 78.4477C62.3914 77.4537 62.9498 76.1056 62.9498 74.7V5.3C62.9498 3.89435 62.3914 2.54628 61.3975 1.55233C60.4035 0.558391 59.0555 0 57.6498 0ZM60.4498 74.7C60.4465 75.4416 60.1505 76.1519 59.6261 76.6763C59.1017 77.2007 58.3914 77.4967 57.6498 77.5H22.3498C21.6082 77.4967 20.8979 77.2007 20.3735 76.6763C19.8491 76.1519 19.5531 75.4416 19.5498 74.7V5.3C19.5531 4.55841 19.8491 3.84812 20.3735 3.32373C20.8979 2.79934 21.6082 2.50329 22.3498 2.5H57.6498C58.3914 2.50329 59.1017 2.79934 59.6261 3.32373C60.1505 3.84812 60.4465 4.55841 60.4498 5.3V74.7ZM43.7498 70.425H36.3748C35.7946 70.425 35.2382 70.6555 34.828 71.0657C34.4178 71.4759 34.1873 72.0323 34.1873 72.6125V73.6C34.1906 74.1792 34.4221 74.7336 34.8316 75.1432C35.2412 75.5527 35.7957 75.7842 36.3748 75.7875H43.7498C44.329 75.7842 44.8834 75.5527 45.293 75.1432C45.7025 74.7336 45.934 74.1792 45.9373 73.6V72.6125C45.9373 72.0323 45.7068 71.4759 45.2966 71.0657C44.8864 70.6555 44.33 70.425 43.7498 70.425ZM44.6873 73.6C44.6841 73.8476 44.5843 74.0842 44.4091 74.2593C44.234 74.4345 43.9974 74.5343 43.7498 74.5375H36.3748C36.1272 74.5343 35.8906 74.4345 35.7155 74.2593C35.5404 74.0842 35.4405 73.8476 35.4373 73.6V72.6125C35.4373 72.3639 35.5361 72.1254 35.7119 71.9496C35.8877 71.7738 36.1262 71.675 36.3748 71.675H43.7498C43.9984 71.675 44.2369 71.7738 44.4127 71.9496C44.5885 72.1254 44.6873 72.3639 44.6873 72.6125V73.6ZM21.8748 69.375H58.1248V10.625H21.8748V69.375ZM23.1248 11.875H56.8748V68.125H23.1248V11.875ZM34.3748 7.5C34.3748 7.33424 34.4407 7.17527 34.5579 7.05806C34.6751 6.94085 34.834 6.875 34.9998 6.875H44.9998C45.1656 6.875 45.3245 6.94085 45.4417 7.05806C45.559 7.17527 45.6248 7.33424 45.6248 7.5C45.6248 7.66576 45.559 7.82473 45.4417 7.94194C45.3245 8.05915 45.1656 8.125 44.9998 8.125H34.9998C34.834 8.125 34.6751 8.05915 34.5579 7.94194C34.4407 7.82473 34.3748 7.66576 34.3748 7.5ZM53.7498 7.5C53.7498 7.29975 53.8092 7.10399 53.9204 6.93749C54.0317 6.77098 54.1898 6.64121 54.3748 6.56457C54.5598 6.48794 54.7634 6.46789 54.9598 6.50696C55.1562 6.54602 55.3366 6.64245 55.4782 6.78405C55.6199 6.92566 55.7163 7.10607 55.7553 7.30247C55.7944 7.49888 55.7744 7.70246 55.6977 7.88747C55.6211 8.07248 55.4913 8.23061 55.3248 8.34186C55.1583 8.45312 54.9626 8.5125 54.7623 8.5125C54.6293 8.5125 54.4977 8.48631 54.3748 8.43543C54.252 8.38455 54.1404 8.30997 54.0464 8.21595C53.9523 8.12193 53.8778 8.01031 53.8269 7.88747C53.776 7.76463 53.7498 7.63296 53.7498 7.5ZM51.8748 7.5C51.8748 7.37639 51.9115 7.25555 51.9801 7.15277C52.0488 7.04999 52.1464 6.96988 52.2606 6.92257C52.3748 6.87527 52.5005 6.86289 52.6217 6.88701C52.743 6.91112 52.8543 6.97065 52.9417 7.05806C53.0292 7.14547 53.0887 7.25683 53.1128 7.37807C53.1369 7.49931 53.1245 7.62497 53.0772 7.73918C53.0299 7.85338 52.9498 7.95099 52.847 8.01967C52.7443 8.08834 52.6234 8.125 52.4998 8.125C52.334 8.125 52.1751 8.05915 52.0579 7.94194C51.9407 7.82473 51.8748 7.66576 51.8748 7.5ZM56.9748 73.55C56.9239 74.1151 56.6529 74.6375 56.2203 75.0046C55.7877 75.3717 55.2281 75.5541 54.6623 75.5125H52.1623C52.0363 75.5125 51.9155 75.4625 51.8264 75.3734C51.7374 75.2843 51.6873 75.1635 51.6873 75.0375C51.6873 74.9757 51.6996 74.9145 51.7237 74.8576C51.7477 74.8006 51.7829 74.7491 51.8272 74.706C51.8714 74.6628 51.9239 74.629 51.9815 74.6066C52.039 74.5841 52.1005 74.5733 52.1623 74.575H54.6623C55.4123 74.575 56.0373 74.1 56.0373 73.55C56.0373 73 55.4123 72.525 54.6623 72.525H51.4873L51.7373 72.7375C51.7951 72.7739 51.8444 72.8223 51.8818 72.8795C51.9192 72.9367 51.9438 73.0012 51.954 73.0688C51.9641 73.1363 51.9596 73.2053 51.9407 73.2709C51.9218 73.3365 51.889 73.3973 51.8445 73.4491C51.7999 73.5009 51.7448 73.5425 51.6827 73.5711C51.6206 73.5996 51.5531 73.6144 51.4848 73.6145C51.4165 73.6146 51.349 73.5999 51.2869 73.5715C51.2247 73.5431 51.1695 73.5017 51.1248 73.45L49.8748 72.4125C49.837 72.3424 49.8116 72.2663 49.7998 72.1875C49.7937 72.1544 49.7937 72.1206 49.7998 72.0875C49.7998 72.0875 49.7998 72.0875 49.7998 72C49.826 71.9531 49.8598 71.9109 49.8998 71.875L51.1498 70.8C51.2426 70.7188 51.3639 70.6778 51.487 70.686C51.6101 70.6942 51.7248 70.7509 51.8061 70.8438C51.8873 70.9366 51.9283 71.0579 51.9201 71.1809C51.9119 71.304 51.8551 71.4188 51.7623 71.5L51.4748 71.7625H54.6873C55.2224 71.7236 55.7528 71.885 56.1756 72.2153C56.5983 72.5457 56.8832 73.0214 56.9748 73.55ZM28.9123 71.8875C28.9123 71.9493 28.9 72.0105 28.8759 72.0674C28.8519 72.1244 28.8167 72.1759 28.7725 72.219C28.7282 72.2622 28.6757 72.296 28.6181 72.3185C28.5606 72.3409 28.4991 72.3517 28.4373 72.35H24.6873C24.6261 72.3517 24.5652 72.3409 24.5083 72.3183C24.4514 72.2957 24.3997 72.2617 24.3564 72.2184C24.3131 72.1751 24.2791 72.1234 24.2565 72.0665C24.2339 72.0096 24.2231 71.9487 24.2248 71.8875C24.2231 71.8257 24.2339 71.7642 24.2564 71.7067C24.2788 71.6491 24.3127 71.5966 24.3558 71.5524C24.3989 71.5081 24.4504 71.4729 24.5074 71.4489C24.5643 71.4248 24.6255 71.4125 24.6873 71.4125H28.4373C28.5633 71.4125 28.6841 71.4625 28.7732 71.5516C28.8623 71.6407 28.9123 71.7615 28.9123 71.8875ZM28.9123 73.1375C28.9123 73.1993 28.9 73.2605 28.8759 73.3174C28.8519 73.3744 28.8167 73.4259 28.7725 73.469C28.7282 73.5122 28.6757 73.546 28.6181 73.5685C28.5606 73.5909 28.4991 73.6017 28.4373 73.6H24.6873C24.6261 73.6017 24.5652 73.5909 24.5083 73.5683C24.4514 73.5457 24.3997 73.5117 24.3564 73.4684C24.3131 73.4251 24.2791 73.3734 24.2565 73.3165C24.2339 73.2596 24.2231 73.1987 24.2248 73.1375C24.2231 73.0757 24.2339 73.0142 24.2564 72.9567C24.2788 72.8991 24.3127 72.8466 24.3558 72.8024C24.3989 72.7581 24.4504 72.7229 24.5074 72.6989C24.5643 72.6748 24.6255 72.6625 24.6873 72.6625H28.4373C28.4997 72.6625 28.5615 72.6748 28.6191 72.6987C28.6767 72.7225 28.7291 72.7575 28.7732 72.8016C28.8173 72.8457 28.8523 72.8981 28.8761 72.9557C28.9 73.0134 28.9123 73.0751 28.9123 73.1375ZM28.9123 74.3875C28.9123 74.4493 28.9 74.5105 28.8759 74.5674C28.8519 74.6244 28.8167 74.6759 28.7725 74.719C28.7282 74.7622 28.6757 74.796 28.6181 74.8185C28.5606 74.8409 28.4991 74.8517 28.4373 74.85H24.6873C24.6261 74.8517 24.5652 74.8409 24.5083 74.8183C24.4514 74.7957 24.3997 74.7617 24.3564 74.7184C24.3131 74.6751 24.2791 74.6234 24.2565 74.5665C24.2339 74.5096 24.2231 74.4487 24.2248 74.3875C24.2231 74.3257 24.2339 74.2642 24.2564 74.2067C24.2788 74.1491 24.3127 74.0966 24.3558 74.0524C24.3989 74.0081 24.4504 73.9729 24.5074 73.9489C24.5643 73.9248 24.6255 73.9125 24.6873 73.9125H28.4373C28.5633 73.9125 28.6841 73.9625 28.7732 74.0516C28.8623 74.1407 28.9123 74.2615 28.9123 74.3875Z" fill="black"/>
</svg>
