<svg width="24" height="24" viewBox="0 0 24 24" fill="none" xmlns="http://www.w3.org/2000/svg">
<path d="M3 11.9998C3.00005 10.1771 3.5535 8.3974 4.58714 6.89615C5.62078 5.3949 7.08587 4.24286 8.78856 3.59248C10.4913 2.9421 12.3513 2.82403 14.1226 3.2539C15.8938 3.68376 17.4928 4.64129 18.708 5.99979H16.5C16.1022 5.99979 15.7206 6.15783 15.4393 6.43913C15.158 6.72044 15 7.10197 15 7.49979C15 7.89762 15.158 8.27915 15.4393 8.56045C15.7206 8.84176 16.1022 8.99979 16.5 8.99979H22.5C22.8978 8.99979 23.2794 8.84176 23.5607 8.56045C23.842 8.27915 24 7.89762 24 7.49979V1.49979C24 1.10197 23.842 0.720438 23.5607 0.439134C23.2794 0.157829 22.8978 -0.000205945 22.5 -0.000205945C22.1022 -0.000205945 21.7206 0.157829 21.4393 0.439134C21.158 0.720438 21 1.10197 21 1.49979V4.06179C19.1423 1.95541 16.6047 0.567319 13.829 0.139253C11.0533 -0.288813 8.21538 0.270262 5.80943 1.71912C3.40349 3.16798 1.58195 5.41483 0.662007 8.06841C-0.257932 10.722 -0.217983 13.6142 0.774896 16.2413C1.76778 18.8685 3.65068 21.0642 6.09573 22.446C8.54077 23.8279 11.3931 24.3084 14.1559 23.8038C16.9187 23.2992 19.417 21.8416 21.2158 19.6847C23.0146 17.5278 23.9998 14.8083 24 11.9998C24 11.602 23.842 11.2204 23.5607 10.9391C23.2794 10.6578 22.8978 10.4998 22.5 10.4998C22.1022 10.4998 21.7206 10.6578 21.4393 10.9391C21.158 11.2204 21 11.602 21 11.9998C21 14.3867 20.0518 16.6759 18.364 18.3638C16.6761 20.0516 14.3869 20.9998 12 20.9998C9.61305 20.9998 7.32387 20.0516 5.63604 18.3638C3.94821 16.6759 3 14.3867 3 11.9998Z" fill="#787878"/>
</svg>
