<svg width="39" height="40" viewBox="0 0 39 40" fill="none" xmlns="http://www.w3.org/2000/svg">
<path d="M5.98743 6.98782C5.8576 7.13942 5.78976 7.33442 5.79747 7.53386C5.80517 7.7333 5.88785 7.92249 6.02898 8.06362C6.17011 8.20476 6.3593 8.28743 6.55874 8.29514C6.75818 8.30284 6.95319 8.235 7.10478 8.10518C8.65417 6.56004 10.753 5.69234 12.9412 5.69234C15.1294 5.69234 17.2282 6.56004 18.7776 8.10518C18.851 8.18005 18.9385 8.23962 19.0351 8.28043C19.1317 8.32124 19.2354 8.34248 19.3403 8.34291C19.497 8.34226 19.65 8.29514 19.7799 8.20753C19.9099 8.11991 20.0109 7.99573 20.0703 7.85068C20.1297 7.70564 20.1447 7.54624 20.1135 7.39266C20.0823 7.23907 20.0063 7.09818 19.895 6.98782C18.0497 5.14556 15.5487 4.11084 12.9412 4.11084C10.3337 4.11084 7.83274 5.14556 5.98743 6.98782V6.98782Z" fill="#C8B27B"/>
<path d="M26.7027 22.5755C26.5542 22.4279 26.3533 22.3451 26.144 22.3451C25.9346 22.3451 25.7338 22.4279 25.5853 22.5755L24.151 24.0257L22.6532 22.5201C24.9125 20.0009 26.0965 16.6979 25.9523 13.3172C25.8081 9.93646 24.347 6.74631 21.8814 4.42875C19.4158 2.1112 16.1414 0.850159 12.7583 0.915241C9.3751 0.980324 6.15163 2.36636 3.77701 4.77703C1.42497 7.16421 0.0893757 10.3699 0.0506699 13.7209C0.0119642 17.0719 1.27316 20.3076 3.56943 22.7484C5.8657 25.1893 9.01841 26.6455 12.3655 26.8113C15.7127 26.977 18.9938 25.8395 21.52 23.6374L23.0257 25.1431L21.5755 26.5853C21.4279 26.7338 21.3451 26.9347 21.3451 27.144C21.3451 27.3534 21.4279 27.5542 21.5755 27.7027L32.6698 38.797C32.8183 38.9446 33.0192 39.0275 33.2285 39.0275C33.4379 39.0275 33.6387 38.9446 33.7872 38.797L37.797 34.7872C37.9446 34.6387 38.0275 34.4379 38.0275 34.2285C38.0275 34.0192 37.9446 33.8183 37.797 33.6699L26.7027 22.5755ZM4.90229 21.9812C2.83923 19.8349 1.7001 16.9652 1.72952 13.9883C1.75894 11.0114 2.95458 8.16476 5.05966 6.05968C7.16474 3.95459 10.0114 2.75896 12.9883 2.72954C15.9652 2.70011 18.8349 3.83925 20.9812 5.90231C23.0442 8.04859 24.1834 10.9183 24.1539 13.8952C24.1245 16.8721 22.9289 19.7187 20.8238 21.8238C18.7187 23.9289 15.8721 25.1245 12.8952 25.154C9.91829 25.1834 7.04857 24.0442 4.90229 21.9812V21.9812ZM33.2166 37.1091L23.2634 27.148L26.148 24.2634L36.1091 34.2167L33.2166 37.1091Z" fill="#C8B27B"/>
</svg>
