<svg width="100" height="80" viewBox="0 0 100 80" fill="none" xmlns="http://www.w3.org/2000/svg">
<g clip-path="url(#clip0_1_153)">
<path d="M98.3871 41.686H94.3118V1.65289C94.3118 1.21452 94.1419 0.794098 93.8394 0.484121C93.5369 0.174144 93.1267 0 92.6989 0L7.30108 0C6.87331 0 6.46306 0.174144 6.16058 0.484121C5.8581 0.794098 5.68817 1.21452 5.68817 1.65289V41.686H1.6129C1.18513 41.686 0.774886 41.8601 0.472408 42.1701C0.16993 42.48 0 42.9005 0 43.3388L0 66.6777C0.00283941 67.1141 0.174022 67.5317 0.476193 67.8393C0.778364 68.1469 1.18699 68.3196 1.6129 68.3196H13.9785V78.3471C13.9785 78.7855 14.1484 79.2059 14.4509 79.5159C14.7534 79.8259 15.1636 80 15.5914 80H26.9355C27.3633 80 27.7735 79.8259 28.076 79.5159C28.3785 79.2059 28.5484 78.7855 28.5484 78.3471V68.3196H70.871V78.3471C70.871 78.7855 71.0409 79.2059 71.3434 79.5159C71.6459 79.8259 72.0561 80 72.4839 80H83.871C84.2987 80 84.709 79.8259 85.0115 79.5159C85.3139 79.2059 85.4839 78.7855 85.4839 78.3471V68.3196H98.3871C98.8149 68.3196 99.2251 68.1454 99.5276 67.8354C99.8301 67.5255 100 67.105 100 66.6667V43.3388C100 42.9005 99.8301 42.48 99.5276 42.1701C99.2251 41.8601 98.8149 41.686 98.3871 41.686ZM18.8817 24.9917C18.8846 23.885 19.3148 22.8244 20.0785 22.0419C20.8421 21.2593 21.877 20.8183 22.957 20.8154H40.043C41.0478 20.813 42.018 21.191 42.7674 21.8769C43.5168 22.5629 43.9925 23.5083 44.1032 24.5317C44.2138 25.5552 43.9517 26.5844 43.367 27.4218C42.7823 28.2593 41.9164 28.8458 40.9355 29.0689H22.0645C21.1618 28.8592 20.3553 28.3416 19.7771 27.6009C19.1989 26.8602 18.8832 25.9403 18.8817 24.9917ZM18.6882 32.3747H21.7742C22.1649 32.4443 22.5605 32.4812 22.957 32.4848H40.043C40.4395 32.4812 40.8351 32.4443 41.2258 32.3747H58.7849C59.1756 32.4443 59.5712 32.4812 59.9677 32.4848H77.043C77.4396 32.4812 77.8351 32.4443 78.2258 32.3747H81.3118C83.6303 32.3678 85.8758 33.2049 87.6482 34.7366C89.4205 36.2684 90.6046 38.3953 90.9893 40.7383H9.08602C9.53786 38.4409 10.7304 36.3659 12.472 34.847C14.2136 33.3281 16.4029 32.4534 18.6882 32.3636V32.3747ZM55.914 24.9917C55.9168 23.885 56.3471 22.8244 57.1107 22.0419C57.8744 21.2593 58.9093 20.8183 59.9893 20.8154H77.043C78.0478 20.813 79.018 21.191 79.7674 21.8769C80.5168 22.5629 80.9925 23.5083 81.1032 24.5317C81.2139 25.5552 80.9517 26.5844 80.367 27.4218C79.7823 28.2593 78.9164 28.8458 77.9355 29.0689H59.0753C58.1765 28.8549 57.3749 28.3355 56.8009 27.5952C56.2269 26.8549 55.9143 25.9373 55.914 24.9917ZM91.086 3.30579V33.6309C89.0224 31.219 86.1771 29.6534 83.0753 29.2231C83.8248 28.0987 84.2607 26.786 84.3359 25.4264C84.4112 24.0669 84.1229 22.7121 83.5023 21.508C82.8816 20.3039 81.9521 19.2963 80.8138 18.5936C79.6756 17.891 78.3718 17.52 77.043 17.5207H59.957C58.6431 17.5213 57.3537 17.8853 56.2248 18.5743C55.0959 19.2633 54.1693 20.2517 53.5428 21.4353C52.9164 22.6189 52.6132 23.9538 52.6652 25.2993C52.7173 26.6447 53.1227 27.9509 53.8387 29.0799H46.1613C46.8773 27.9509 47.2827 26.6447 47.3348 25.2993C47.3868 23.9538 47.0836 22.6189 46.4572 21.4353C45.8307 20.2517 44.9041 19.2633 43.7752 18.5743C42.6464 17.8853 41.3569 17.5213 40.043 17.5207H22.957C21.6274 17.5206 20.323 17.8927 19.1846 18.5967C18.0462 19.3007 17.117 20.3099 16.4973 21.5154C15.8776 22.721 15.5909 24.077 15.6681 25.4373C15.7453 26.7976 16.1835 28.1104 16.9355 29.2342C13.8162 29.7459 10.9765 31.3787 8.92473 33.8402V3.30579H91.086ZM25.3226 76.6942H17.2043V68.3196H25.3656L25.3226 76.6942ZM82.2473 76.6942H74.0968V68.3196H82.2581L82.2473 76.6942ZM96.7742 65.0138H3.22581V44.9917H96.7742V65.0138Z" fill="black"/>
</g>
<defs>
<clipPath id="clip0_1_153">
<rect width="100" height="80" fill="white"/>
</clipPath>
</defs>
</svg>
