<svg width="98" height="66" viewBox="0 0 98 66" fill="none" xmlns="http://www.w3.org/2000/svg">
<path d="M42.5938 62.8438H21.0312C11.5 62.8438 3.6875 55.0313 3.6875 45.5C3.6875 44.5625 3.0625 43.9375 2.125 43.9375C1.1875 43.9375 0.5625 44.5625 0.5625 45.5C0.5625 56.75 9.78125 65.9688 21.0312 65.9688H42.5938C43.5312 65.9688 44.1562 65.3438 44.1562 64.4062C44.1562 63.4688 43.375 62.8438 42.5938 62.8438ZM52.125 62.8438H48.8438C47.9062 62.8438 47.2812 63.4688 47.2812 64.4062C47.2812 65.3438 47.9062 65.9688 48.8438 65.9688H52.125C53.0625 65.9688 53.6875 65.3438 53.6875 64.4062C53.6875 63.4688 53.0625 62.8438 52.125 62.8438ZM95.875 50.3437H69.625C68.6875 50.3437 68.0625 50.9687 68.0625 51.9062C68.0625 52.6875 68.6875 53.3125 69.3125 53.4687V55.0312C69.3125 55.9687 69.9375 56.5937 70.875 56.5937C71.8125 56.5937 72.4375 55.9687 72.4375 55.0312V53.4687H75.5625V55.0312C75.5625 55.9687 76.1875 56.5937 77.125 56.5937C78.0625 56.5937 78.6875 55.9687 78.6875 55.0312V53.4687H81.8125V55.0312C81.8125 55.9687 82.4375 56.5937 83.375 56.5937C84.3125 56.5937 84.9375 55.9687 84.9375 55.0312V53.4687H88.0625V55.0312C88.0625 55.9687 88.6875 56.5937 89.625 56.5937C90.5625 56.5937 91.1875 55.9687 91.1875 55.0312V53.4687H94.3125V59.7187H69.625C68.6875 59.7187 68.0625 60.3437 68.0625 61.2812C68.0625 62.2188 68.6875 62.8438 69.625 62.8438H94.3125V64.4062C94.3125 65.3438 94.9375 65.9688 95.875 65.9688C96.8125 65.9688 97.4375 65.3438 97.4375 64.4062V51.9062C97.4375 50.9687 96.8125 50.3437 95.875 50.3437Z" fill="black"/>
<path d="M72.4375 39.25V29.875C72.4375 27.2188 70.4062 25.1875 67.75 25.1875H66.1875V20.5C66.1875 9.25 56.9688 0.03125 45.7188 0.03125H21.0312C9.78125 0.03125 0.5625 9.25 0.5625 20.5V38.9375C0.5625 39.875 1.1875 40.5 2.125 40.5C3.0625 40.5 3.6875 39.875 3.6875 38.9375V34.5625H8.375C9.3125 34.5625 9.9375 33.9375 9.9375 33V22.2188C9.9375 17.6875 12.4375 13.4688 16.3438 11.2813C17.125 10.8125 17.4375 9.875 16.9688 9.09375C16.5 8.3125 15.5625 8 14.7813 8.46875C9.9375 11.2812 6.8125 16.5938 6.8125 22.2188V31.4375H3.6875V20.5C3.6875 10.9688 11.5 3.15625 21.0312 3.15625H31.8125V6.4375H22.5938C21.6562 6.4375 21.0312 7.0625 21.0312 8C21.0312 8.9375 21.6562 9.5625 22.5938 9.5625H33.375C34.3125 9.5625 34.9375 8.9375 34.9375 8V3.15625H45.7188C55.25 3.15625 63.0625 10.9688 63.0625 20.5V62.8438H58.375C57.4375 62.8438 56.8125 63.4688 56.8125 64.4062C56.8125 65.3438 57.4375 65.9688 58.375 65.9688H64.625C65.5625 65.9688 66.1875 65.3438 66.1875 64.4062V43.9375H67.75C70.4062 43.9375 72.4375 41.9063 72.4375 39.25ZM69.3125 39.25C69.3125 40.1875 68.6875 40.8125 67.75 40.8125H66.1875V28.3125H67.75C68.6875 28.3125 69.3125 28.9375 69.3125 29.875V39.25Z" fill="black"/>
<path d="M33.375 12.6875C22.125 12.6875 13.0625 21.75 13.0625 33C13.0625 44.25 22.125 53.3125 33.375 53.3125C34.3125 53.3125 34.9375 52.6875 34.9375 51.75C34.9375 50.8125 34.3125 50.1875 33.375 50.1875C23.8438 50.1875 16.1875 42.5312 16.1875 33C16.1875 23.4688 23.8438 15.8125 33.375 15.8125C42.9062 15.8125 50.5625 23.4688 50.5625 33C50.5625 40.3438 45.875 46.75 39.1563 49.25C38.375 49.5625 37.9062 50.5 38.2188 51.2812C38.5312 52.0625 39.4688 52.5312 40.25 52.2188C48.2188 49.25 53.6875 41.5938 53.6875 33C53.6875 21.75 44.625 12.6875 33.375 12.6875Z" fill="black"/>
<path d="M33.375 31.4375C34.3125 31.4375 34.9375 30.8125 34.9375 29.875C34.9375 28.9375 34.3125 28.3125 33.375 28.3125C30.7188 28.3125 28.6875 30.3438 28.6875 33C28.6875 35.6562 30.7188 37.6875 33.375 37.6875C36.0312 37.6875 38.0625 35.6562 38.0625 33C38.0625 32.0625 37.4375 31.4375 36.5 31.4375C35.5625 31.4375 34.9375 32.0625 34.9375 33C34.9375 33.9375 34.3125 34.5625 33.375 34.5625C32.4375 34.5625 31.8125 33.9375 31.8125 33C31.8125 32.0625 32.4375 31.4375 33.375 31.4375Z" fill="black"/>
<path d="M11.5 56.4375C12.3629 56.4375 13.0625 55.7379 13.0625 54.875C13.0625 54.0121 12.3629 53.3125 11.5 53.3125C10.6371 53.3125 9.9375 54.0121 9.9375 54.875C9.9375 55.7379 10.6371 56.4375 11.5 56.4375Z" fill="black"/>
<path d="M55.25 12.6875C56.1129 12.6875 56.8125 11.9879 56.8125 11.125C56.8125 10.2621 56.1129 9.5625 55.25 9.5625C54.3871 9.5625 53.6875 10.2621 53.6875 11.125C53.6875 11.9879 54.3871 12.6875 55.25 12.6875Z" fill="black"/>
</svg>
