<svg width="80" height="80" viewBox="0 0 80 80" fill="none" xmlns="http://www.w3.org/2000/svg">
<path d="M42.25 65.4999C42.25 66.1249 41.75 66.7499 41 66.7499H10.625C10 66.7499 9.375 66.2499 9.375 65.4999C9.375 64.8749 9.875 64.2499 10.625 64.2499H41C41.625 64.2499 42.25 64.7499 42.25 65.4999ZM55.5 40.3749C55.5 40.9999 55 41.6249 54.25 41.6249H10.5C9.875 41.6249 9.25 41.1249 9.25 40.3749C9.25 39.7499 9.75 39.1249 10.5 39.1249H54.25C55 39.2499 55.5 39.7499 55.5 40.3749ZM55.5 27.8749C55.5 28.4999 55 29.1249 54.25 29.1249H10.5C9.875 29.1249 9.25 28.6249 9.25 27.8749C9.25 27.2499 9.75 26.6249 10.5 26.6249H54.25C55 26.7499 55.5 27.2499 55.5 27.8749ZM38.25 15.3749C38.25 15.9999 37.75 16.6249 37 16.6249H10.625C10 16.6249 9.375 16.1249 9.375 15.3749C9.375 14.7499 9.875 14.1249 10.625 14.1249H37C37.625 14.1249 38.25 14.7499 38.25 15.3749Z" fill="black"/>
<path d="M64.375 44.125V16.125C64.375 15.75 64.25 15.5 64 15.25L49.125 0.375C49 0.125 48.625 0 48.25 0H1.75C1.125 0 0.5 0.5 0.5 1.25V78.75C0.5 79.375 1 80 1.75 80H63.25C63.875 80 64.5 79.5 64.5 78.75V76.625C72.875 76 79.625 69 79.625 60.375C79.5 51.875 72.875 44.75 64.375 44.125ZM49.5 4.125L60.25 14.875H49.5V4.125ZM62 77.625H2.875V2.375H47V16.125C47 16.75 47.5 17.375 48.25 17.375H62V44.125C56.75 44.5 52.125 47.5 49.5 51.75H10.625C10 51.75 9.375 52.25 9.375 53C9.375 53.625 9.875 54.25 10.625 54.25H48.25C47.5 56.125 47 58.25 47 60.5C47 69.125 53.625 76.125 62 76.75V77.625ZM63.25 74.25C55.625 74.25 49.375 68 49.375 60.375C49.375 52.75 55.625 46.5 63.25 46.5C70.875 46.5 77.125 52.75 77.125 60.375C77.125 68 70.875 74.25 63.25 74.25Z" fill="black"/>
<path d="M72 56.0001L61.5 66.5001C61.25 66.7501 61 66.8751 60.625 66.8751C60.25 66.8751 60 66.7501 59.75 66.5001L54.375 61.2501C53.875 60.7501 53.875 60.0001 54.375 59.5001C54.875 59.0001 55.625 59.0001 56.125 59.5001L60.625 64.0001L70.25 54.3751C70.75 53.8751 71.5 53.8751 72 54.3751C72.5 54.7501 72.5 55.5001 72 56.0001Z" fill="black"/>
</svg>
