<svg width="60" height="75" viewBox="0 0 60 75" fill="none" xmlns="http://www.w3.org/2000/svg">
<path d="M58.5917 0.392517H1.40918C1.07766 0.392517 0.759717 0.524213 0.525296 0.758634C0.290876 0.993054 0.15918 1.311 0.15918 1.64252V73.34C0.15918 73.6715 0.290876 73.9895 0.525296 74.2239C0.759717 74.4583 1.07766 74.59 1.40918 74.59H58.5917C58.9232 74.59 59.2411 74.4583 59.4756 74.2239C59.71 73.9895 59.8417 73.6715 59.8417 73.34V1.64252C59.8417 1.311 59.71 0.993054 59.4756 0.758634C59.2411 0.524213 58.9232 0.392517 58.5917 0.392517ZM49.4554 7.83627H10.5454V2.89252H49.4554V7.83627ZM10.5454 10.3363H49.4554V25.9375H10.5454V10.3363ZM57.3417 72.0863H2.65918V2.89252H8.04543V27.1875C8.04543 27.519 8.17713 27.837 8.41155 28.0714C8.64597 28.3058 8.96391 28.4375 9.29543 28.4375H50.7054C51.0369 28.4375 51.3549 28.3058 51.5893 28.0714C51.8237 27.837 51.9554 27.519 51.9554 27.1875V2.89252H57.3417V72.0863Z" fill="black"/>
<path d="M34.6449 40.3538H25.3549C25.0234 40.3538 24.7055 40.4855 24.471 40.7199C24.2366 40.9543 24.1049 41.2722 24.1049 41.6038V49.0538C24.1049 49.3853 24.2366 49.7032 24.471 49.9376C24.7055 50.1721 25.0234 50.3038 25.3549 50.3038H34.6449C34.9764 50.3038 35.2944 50.1721 35.5288 49.9376C35.7632 49.7032 35.8949 49.3853 35.8949 49.0538V41.6038C35.8949 41.2722 35.7632 40.9543 35.5288 40.7199C35.2944 40.4855 34.9764 40.3538 34.6449 40.3538ZM33.3949 47.8038H26.6049V42.8538H33.3949V47.8038ZM34.6449 54.5288H25.3549C25.0234 54.5288 24.7055 54.6605 24.471 54.8949C24.2366 55.1293 24.1049 55.4472 24.1049 55.7788V63.2288C24.1049 63.5603 24.2366 63.8782 24.471 64.1126C24.7055 64.3471 25.0234 64.4788 25.3549 64.4788H34.6449C34.9764 64.4788 35.2944 64.3471 35.5288 64.1126C35.7632 63.8782 35.8949 63.5603 35.8949 63.2288V55.7788C35.8949 55.4472 35.7632 55.1293 35.5288 54.8949C35.2944 54.6605 34.9764 54.5288 34.6449 54.5288ZM33.3949 61.9788H26.6049V57.0288H33.3949V61.9788ZM18.5824 54.5288H9.29492C8.9634 54.5288 8.64546 54.6605 8.41104 54.8949C8.17662 55.1293 8.04492 55.4472 8.04492 55.7788V63.2288C8.04492 63.5603 8.17662 63.8782 8.41104 64.1126C8.64546 64.3471 8.9634 64.4788 9.29492 64.4788H18.5824C18.9139 64.4788 19.2319 64.3471 19.4663 64.1126C19.7007 63.8782 19.8324 63.5603 19.8324 63.2288V55.7788C19.8324 55.4472 19.7007 55.1293 19.4663 54.8949C19.2319 54.6605 18.9139 54.5288 18.5824 54.5288ZM17.3324 61.9788H10.5449V57.0288H17.3324V61.9788ZM50.7049 40.3538H41.4174C41.0859 40.3538 40.768 40.4855 40.5335 40.7199C40.2991 40.9543 40.1674 41.2722 40.1674 41.6038V63.2288C40.1674 63.5603 40.2991 63.8782 40.5335 64.1126C40.768 64.3471 41.0859 64.4788 41.4174 64.4788H50.7049C51.0364 64.4788 51.3544 64.3471 51.5888 64.1126C51.8232 63.8782 51.9549 63.5603 51.9549 63.2288V41.6038C51.9549 41.2722 51.8232 40.9543 51.5888 40.7199C51.3544 40.4855 51.0364 40.3538 50.7049 40.3538ZM49.4549 61.9788H42.6674V42.8538H49.4549V61.9788ZM18.5824 40.3538H9.29492C8.9634 40.3538 8.64546 40.4855 8.41104 40.7199C8.17662 40.9543 8.04492 41.2722 8.04492 41.6038V49.0538C8.04492 49.3853 8.17662 49.7032 8.41104 49.9376C8.64546 50.1721 8.9634 50.3038 9.29492 50.3038H18.5824C18.9139 50.3038 19.2319 50.1721 19.4663 49.9376C19.7007 49.7032 19.8324 49.3853 19.8324 49.0538V41.6038C19.8324 41.2722 19.7007 40.9543 19.4663 40.7199C19.2319 40.4855 18.9139 40.3538 18.5824 40.3538ZM17.3324 47.8038H10.5449V42.8538H17.3324V47.8038Z" fill="black"/>
<path d="M44.9832 15.8526L38.6943 22.1414L40.4621 23.9092L46.7509 17.6204L44.9832 15.8526Z" fill="black"/>
<path d="M47.949 33.145H12.0527V35.645H47.949V33.145Z" fill="black"/>
</svg>
