<svg width="80" height="60" viewBox="0 0 80 60" fill="none" xmlns="http://www.w3.org/2000/svg">
<path d="M64.0783 59.1914H1.66667C1.22464 59.1914 0.800716 59.0158 0.488155 58.7032C0.175595 58.3907 0 57.9667 0 57.5247V21.8014C0 21.3593 0.175595 20.9354 0.488155 20.6229C0.800716 20.3103 1.22464 20.1347 1.66667 20.1347H64.0783C64.5204 20.1347 64.9443 20.3103 65.2568 20.6229C65.5694 20.9354 65.745 21.3593 65.745 21.8014V57.5247C65.745 57.9667 65.5694 58.3907 65.2568 58.7032C64.9443 59.0158 64.5204 59.1914 64.0783 59.1914ZM3.33333 55.858H62.4117V23.468H3.33333V55.858Z" fill="#1C1C1B"/>
<path d="M53.3329 54.1416H12.4212C11.9792 54.1416 11.5553 53.966 11.2427 53.6535C10.9301 53.3409 10.7545 52.917 10.7545 52.4749C10.7532 51.5879 10.4001 50.7376 9.77277 50.1105C9.14538 49.4835 8.29491 49.1308 7.40788 49.1299C6.96585 49.1299 6.54193 48.9543 6.22937 48.6418C5.91681 48.3292 5.74121 47.9053 5.74121 47.4633V31.8649C5.74121 31.4229 5.91681 30.999 6.22937 30.6864C6.54193 30.3739 6.96585 30.1983 7.40788 30.1983C8.29506 30.1969 9.14553 29.8439 9.77287 29.2166C10.4002 28.5893 10.7532 27.7388 10.7545 26.8516C10.7545 26.4096 10.9301 25.9857 11.2427 25.6731C11.5553 25.3605 11.9792 25.1849 12.4212 25.1849H53.3329C53.7749 25.1849 54.1988 25.3605 54.5114 25.6731C54.824 25.9857 54.9995 26.4096 54.9995 26.8516C55.0004 27.7366 55.3515 28.5853 55.976 29.2124C56.6006 29.8394 57.4479 30.1939 58.3329 30.1983C58.7749 30.1983 59.1988 30.3739 59.5114 30.6864C59.824 30.999 59.9995 31.4229 59.9995 31.8649V47.4633C59.9995 47.9053 59.824 48.3292 59.5114 48.6418C59.1988 48.9543 58.7749 49.1299 58.3329 49.1299C57.446 49.1308 56.5957 49.4835 55.9686 50.1106C55.3415 50.7378 54.9888 51.5881 54.9879 52.4749C54.9879 52.915 54.8139 53.3371 54.5039 53.6493C54.1938 53.9616 53.7729 54.1385 53.3329 54.1416ZM13.8845 50.8083H51.8845C52.1826 49.6543 52.7827 48.6005 53.6231 47.7554C54.4635 46.9103 55.5139 46.3044 56.6662 45.9999V33.3199C55.5109 33.0195 54.4567 32.416 53.6126 31.5719C52.7684 30.7278 52.165 29.6736 51.8645 28.5183H13.8762C13.5761 29.6738 12.9727 30.7281 12.1286 31.5723C11.2844 32.4165 10.23 33.0198 9.07454 33.3199V45.9999C10.2307 46.3009 11.2854 46.9054 12.1296 47.7508C12.9738 48.5961 13.5768 49.6517 13.8762 50.8083H13.8845Z" fill="#1C1C1B"/>
<path d="M32.8729 48.8498C31.0557 48.8501 29.2793 48.3115 27.7683 47.3021C26.2572 46.2927 25.0795 44.8579 24.384 43.1791C23.6886 41.5003 23.5066 39.6529 23.8611 37.8707C24.2157 36.0884 25.0908 34.4514 26.3759 33.1666C27.6609 31.8818 29.2981 31.0069 31.0804 30.6527C32.8627 30.2985 34.7101 30.4808 36.3888 31.1765C38.0674 31.8723 39.5021 33.0503 40.5112 34.5615C41.5203 36.0727 42.0586 37.8493 42.0579 39.6664C42.0539 42.1011 41.0849 44.4349 39.3632 46.1562C37.6415 47.8776 35.3076 48.8463 32.8729 48.8498ZM32.8729 33.8114C31.7152 33.8111 30.5834 34.1541 29.6207 34.797C28.6579 35.4399 27.9074 36.3538 27.4641 37.4233C27.0208 38.4927 26.9045 39.6696 27.1301 40.8051C27.3556 41.9406 27.9128 42.9837 28.7311 43.8025C29.5495 44.6214 30.5923 45.1791 31.7277 45.4053C32.863 45.6315 34.04 45.5159 35.1097 45.0732C36.1794 44.6305 37.0937 43.8805 37.7372 42.9181C38.3806 41.9557 38.7242 40.8241 38.7246 39.6664C38.7237 38.1144 38.107 36.6262 37.0099 35.5285C35.9128 34.4307 34.4249 33.8132 32.8729 33.8114Z" fill="#1C1C1B"/>
<path d="M68.0315 49.6465C67.6039 49.6466 67.1926 49.4822 66.8827 49.1876C66.5729 48.8929 66.3881 48.4904 66.3667 48.0633C66.3453 47.6362 66.4889 47.2172 66.7677 46.893C67.0466 46.5688 67.4394 46.3642 67.8648 46.3215L69.7882 46.1198L66.4048 13.9082L12.7498 19.5415C12.31 19.5877 11.8699 19.4573 11.5262 19.1789C11.1825 18.9006 10.9635 18.4972 10.9173 18.0573C10.8711 17.6175 11.0016 17.1774 11.2799 16.8337C11.5582 16.49 11.9617 16.271 12.4015 16.2248L67.7082 10.4182C67.926 10.3951 68.1462 10.4151 68.3562 10.4772C68.5662 10.5392 68.762 10.6421 68.9323 10.7799C69.1025 10.9176 69.244 11.0876 69.3485 11.28C69.453 11.4725 69.5186 11.6837 69.5415 11.9015L73.2732 47.4298C73.2963 47.6476 73.2762 47.8678 73.2141 48.0779C73.1521 48.2879 73.0492 48.4837 72.9115 48.6539C72.7737 48.8242 72.6037 48.9657 72.4113 49.0702C72.2188 49.1747 72.0076 49.2403 71.7898 49.2632L68.2082 49.6398C68.1482 49.6432 68.0898 49.6465 68.0315 49.6465Z" fill="#1C1C1B"/>
<path d="M75.6114 39.7465C75.1968 39.7462 74.7973 39.5914 74.4908 39.3123C74.1843 39.0332 73.9928 38.6499 73.9536 38.2373C73.9145 37.8246 74.0305 37.4121 74.2791 37.0804C74.5277 36.7487 74.891 36.5215 75.298 36.4432L76.383 36.2349L70.2797 4.42488L18.0447 14.4449C17.8294 14.4861 17.6082 14.4846 17.3935 14.4403C17.1788 14.3961 16.975 14.31 16.7936 14.1869C16.4273 13.9384 16.1747 13.5546 16.0914 13.1199C16.0501 12.9046 16.0516 12.6833 16.0959 12.4687C16.1402 12.254 16.2263 12.0502 16.3493 11.8688C16.4723 11.6874 16.6299 11.532 16.813 11.4115C16.9961 11.2911 17.2011 11.2078 17.4164 11.1665L71.2897 0.833209C71.7235 0.750145 72.1726 0.842688 72.5382 1.09051C72.9038 1.33832 73.1561 1.72115 73.2397 2.15488L79.9697 37.2399C80.0527 37.6739 79.96 38.1232 79.7118 38.4889C79.4636 38.8546 79.0804 39.1067 78.6464 39.1899L75.9264 39.7115C75.8227 39.733 75.7172 39.7447 75.6114 39.7465Z" fill="#1C1C1B"/>
</svg>
