<svg width="113" height="12" viewBox="0 0 113 12" fill="none" xmlns="http://www.w3.org/2000/svg">
<path d="M113 5.99999L108 3.11324L108 8.88674L113 5.99999ZM4.37114e-08 6.5L2.01786 6.5L2.01786 5.5L-4.37114e-08 5.5L4.37114e-08 6.5ZM6.05357 6.5L10.0893 6.5L10.0893 5.5L6.05357 5.5L6.05357 6.5ZM14.125 6.5L18.1607 6.5L18.1607 5.5L14.125 5.5L14.125 6.5ZM22.1964 6.5L26.2321 6.5L26.2321 5.5L22.1964 5.5L22.1964 6.5ZM30.2679 6.5L34.3036 6.5L34.3036 5.5L30.2679 5.5L30.2679 6.5ZM38.3393 6.5L42.375 6.5L42.375 5.5L38.3393 5.5L38.3393 6.5ZM46.4107 6.5L50.4464 6.5L50.4464 5.5L46.4107 5.5L46.4107 6.5ZM54.4821 6.5L58.5178 6.49999L58.5178 5.49999L54.4821 5.5L54.4821 6.5ZM62.5536 6.49999L66.5893 6.49999L66.5893 5.49999L62.5536 5.49999L62.5536 6.49999ZM70.625 6.49999L74.6607 6.49999L74.6607 5.49999L70.625 5.49999L70.625 6.49999ZM78.6964 6.49999L82.7321 6.49999L82.7321 5.49999L78.6964 5.49999L78.6964 6.49999ZM86.7678 6.49999L90.8036 6.49999L90.8036 5.49999L86.7678 5.49999L86.7678 6.49999ZM94.8393 6.49999L98.875 6.49999L98.875 5.49999L94.8393 5.49999L94.8393 6.49999ZM102.911 6.49999L106.946 6.49999L106.946 5.49999L102.911 5.49999L102.911 6.49999ZM113 5.99999L103 0.226488L103 11.7735L113 5.99999ZM8.74228e-08 7L2.01786 7L2.01786 5L-8.74228e-08 5L8.74228e-08 7ZM6.05357 7L10.0893 7L10.0893 5L6.05357 5L6.05357 7ZM14.125 7L18.1607 7L18.1607 5L14.125 5L14.125 7ZM22.1964 7L26.2321 7L26.2321 5L22.1964 5L22.1964 7ZM30.2679 7L34.3036 7L34.3036 5L30.2679 5L30.2679 7ZM38.3393 7L42.375 7L42.375 5L38.3393 5L38.3393 7ZM46.4107 7L50.4464 7L50.4464 5L46.4107 5L46.4107 7ZM54.4821 7L58.5178 6.99999L58.5178 4.99999L54.4821 5L54.4821 7ZM62.5536 6.99999L66.5893 6.99999L66.5893 4.99999L62.5536 4.99999L62.5536 6.99999ZM70.625 6.99999L74.6607 6.99999L74.6607 4.99999L70.625 4.99999L70.625 6.99999ZM78.6964 6.99999L82.7321 6.99999L82.7321 4.99999L78.6964 4.99999L78.6964 6.99999ZM86.7678 6.99999L90.8036 6.99999L90.8036 4.99999L86.7678 4.99999L86.7678 6.99999ZM94.8393 6.99999L98.875 6.99999L98.875 4.99999L94.8393 4.99999L94.8393 6.99999ZM102.911 6.99999L106.946 6.99999L106.946 4.99999L102.911 4.99999L102.911 6.99999Z" fill="black"/>
</svg>
