<svg width="12" height="18" viewBox="0 0 12 18" fill="none" xmlns="http://www.w3.org/2000/svg">
<path d="M4.6575 0.75C3.915 0.75 3.1965 0.9675 2.57775 1.38L1.08375 2.376L1.91625 3.624L3.41025 2.628C3.77941 2.3813 4.2135 2.24975 4.6575 2.25H7.94625C8.31675 2.25068 8.67807 2.36535 8.98116 2.57844C9.28426 2.79152 9.51445 3.0927 9.64049 3.4411C9.76653 3.78951 9.78232 4.16825 9.68572 4.52594C9.58912 4.88362 9.3848 5.20292 9.1005 5.4405L8.43 6H0V7.5H6.63L3.9285 9.75H0V11.25H2.13L1.9395 11.4075C1.56673 11.7175 1.26688 12.1058 1.06128 12.5449C0.855684 12.9839 0.749402 13.4629 0.75 13.9478C0.751191 14.8233 1.09959 15.6627 1.71879 16.2817C2.33798 16.9008 3.17742 17.249 4.053 17.25H7.34175C8.08425 17.25 8.80425 17.0325 9.4215 16.62L10.9163 15.624L10.0837 14.376L8.58975 15.372C8.22059 15.6187 7.7865 15.7503 7.3425 15.75H4.05375C3.68325 15.7493 3.32193 15.6346 3.01884 15.4216C2.71575 15.2085 2.48555 14.9073 2.35951 14.5589C2.23347 14.2105 2.21767 13.8317 2.31428 13.4741C2.41088 13.1164 2.6152 12.7971 2.8995 12.5595L4.47075 11.25H12V9.75H6.27075L8.97075 7.5H12V6H10.6125C11.0266 5.43531 11.25 4.75328 11.25 4.053C11.249 3.17729 10.9007 2.33774 10.2815 1.71852C9.66226 1.0993 8.82271 0.750993 7.947 0.75H4.6575Z" fill="#F8476A"/>
</svg>
